<?xml version="1.0" standalone="no"?>
<!DOCTYPE svg PUBLIC "-//W3C//DTD SVG 20010904//EN"
 "http://www.w3.org/TR/2001/REC-SVG-20010904/DTD/svg10.dtd">
<svg version="1.0" xmlns="http://www.w3.org/2000/svg"
 width="1080.000000pt" height="316.000000pt" viewBox="0 0 1080.000000 316.000000"
 preserveAspectRatio="xMidYMid meet">
<metadata>
Created by potrace 1.16, written by Peter Selinger 2001-2019
</metadata>
<g transform="translate(0.000000,316.000000) scale(0.100000,-0.100000)"
fill="#000000" stroke="none">
<path d="M2764 2415 c-4 -8 -1 -22 6 -30 18 -22 1 -19 -59 11 -58 27 -81 26
-81 -6 0 -15 16 -28 65 -51 36 -17 65 -35 65 -40 0 -19 -41 -8 -105 27 -36 20
-72 33 -80 30 -25 -9 -17 -44 13 -60 l27 -15 -40 0 c-22 0 -60 4 -84 8 -54 11
-73 5 -69 -22 2 -16 17 -23 73 -37 87 -20 125 -39 103 -51 -9 -5 -37 1 -77 17
-112 45 -196 43 -172 -5 14 -27 1 -41 -39 -41 -45 0 -69 -22 -50 -45 9 -10 32
-15 74 -15 60 0 97 -12 83 -26 -3 -4 -44 -6 -89 -5 -108 2 -142 -8 -146 -41
-2 -14 -16 -38 -32 -53 -24 -23 -27 -33 -23 -61 4 -26 1 -38 -12 -48 -22 -16
-14 -46 12 -46 10 0 32 9 48 20 29 19 65 27 65 14 0 -4 -14 -48 -32 -98 -30
-84 -32 -101 -33 -221 0 -109 4 -142 23 -205 36 -113 88 -203 164 -285 119
-128 267 -204 439 -226 350 -45 676 160 786 496 22 68 26 99 27 205 1 91 -4
141 -16 185 -10 33 -20 69 -23 80 -6 24 13 58 22 37 3 -7 16 -25 28 -40 22
-26 25 -26 41 -10 22 22 13 44 -51 123 -41 50 -45 59 -31 67 24 14 19 41 -14
73 -22 21 -28 34 -24 51 5 19 0 26 -20 36 -22 10 -26 16 -21 39 7 32 -6 42
-83 64 -112 32 -159 28 -202 -15 -23 -23 -55 -23 -55 0 0 15 91 48 136 49 31
1 45 27 28 48 -22 26 -161 -11 -207 -54 -31 -29 -52 -35 -52 -15 0 4 25 23 55
41 57 35 66 50 40 71 -13 11 -27 5 -85 -34 l-70 -46 0 34 c0 31 3 35 37 43 24
6 39 15 41 27 7 33 -19 39 -91 19 -10 -3 -27 -18 -37 -35 l-18 -30 -38 34
c-85 75 -128 94 -140 63z m324 -413 c42 2 142 -33 142 -51 0 -22 33 -19 52 4
11 14 24 25 31 25 6 0 1 -9 -11 -20 -37 -35 -8 -66 34 -35 27 20 40 19 21 -3
-32 -35 -9 -65 32 -42 23 12 28 1 10 -17 -19 -19 -2 -46 25 -39 21 5 26 0 45
-43 32 -74 29 -83 -35 -114 -31 -16 -57 -27 -58 -25 -49 112 -98 152 -188 152
-84 1 -146 -47 -178 -136 -9 -27 -12 -28 -79 -28 -65 0 -69 1 -75 25 -9 35
-65 96 -103 111 -74 31 -157 11 -211 -50 -17 -20 -32 -41 -32 -46 0 -6 -5 -10
-11 -10 -21 0 -179 95 -179 108 0 19 13 14 36 -15 19 -24 24 -26 38 -14 9 7
16 20 16 28 0 18 35 64 43 57 3 -3 12 3 19 15 7 12 22 21 34 21 14 0 24 8 28
23 4 18 13 22 47 24 47 3 69 17 69 44 0 22 18 34 46 31 13 -2 25 6 34 23 12
23 16 25 26 11 15 -22 37 -20 59 4 14 15 21 17 31 9 7 -6 19 -9 26 -7 7 3 19
-2 27 -10 13 -13 18 -11 36 12 11 14 26 26 33 26 6 0 17 9 24 20 12 18 14 17
40 -25 23 -37 33 -45 56 -43z m-689 -357 c51 -28 91 -57 91 -65 1 -62 53 -146
111 -176 36 -18 122 -18 158 0 38 20 89 80 97 114 14 64 11 62 79 62 l63 0 12
-37 c18 -57 54 -98 105 -123 93 -45 194 -5 243 97 23 49 36 62 86 90 37 21 63
30 69 24 16 -16 11 -191 -7 -261 -72 -283 -316 -470 -612 -470 -136 0 -239 30
-347 102 -82 55 -113 84 -164 155 -104 146 -143 340 -101 506 5 21 13 37 17
35 5 -2 50 -25 100 -53z"/>
<path d="M2663 1204 c-8 -23 31 -58 100 -90 53 -25 75 -29 148 -29 78 0 91 3
161 38 79 39 98 61 75 84 -12 12 -21 10 -63 -16 -61 -39 -103 -51 -179 -51
-70 1 -121 17 -169 54 -39 30 -64 33 -73 10z"/>
<path d="M9066 2414 c-4 -9 -1 -23 5 -30 16 -19 8 -18 -58 11 -62 28 -83 27
-83 -5 0 -15 16 -28 65 -51 36 -17 65 -35 65 -40 0 -18 -41 -8 -103 26 -38 21
-71 33 -81 29 -25 -10 -19 -42 12 -58 l27 -15 -45 0 c-25 0 -62 4 -84 8 -48
12 -68 5 -64 -22 2 -17 16 -24 73 -37 84 -20 121 -38 107 -52 -7 -7 -31 -2
-75 16 -35 14 -90 29 -122 32 l-57 7 4 -39 3 -39 -45 -5 c-40 -4 -45 -8 -45
-30 0 -22 5 -25 40 -28 156 -9 161 -33 8 -35 -103 -2 -133 -12 -133 -45 0 -9
-14 -30 -30 -47 -29 -30 -30 -34 -18 -60 11 -25 10 -29 -10 -43 -25 -17 -28
-34 -8 -51 10 -9 27 -4 72 20 32 16 60 26 62 21 1 -4 -9 -34 -22 -64 -96 -217
-60 -495 89 -698 101 -137 284 -249 455 -277 244 -39 476 33 640 199 107 109
180 248 201 382 15 94 5 266 -19 336 -27 80 -11 125 22 61 19 -35 40 -45 57
-25 16 20 -4 63 -61 127 l-42 47 24 19 23 20 -37 38 c-28 29 -35 42 -27 55 7
13 3 21 -19 37 -23 16 -28 26 -24 49 4 29 1 31 -60 51 -97 32 -149 36 -192 16
-21 -10 -40 -24 -43 -32 -6 -16 -39 -17 -49 -2 -11 18 8 28 86 48 42 10 79 26
85 35 34 56 -143 31 -213 -30 -23 -19 -43 -30 -46 -25 -6 10 39 48 82 70 25
13 30 49 7 57 -9 4 -43 -12 -78 -35 -35 -23 -66 -41 -70 -41 -4 0 -7 13 -7 29
0 25 5 30 38 38 30 7 37 13 37 33 0 22 -4 25 -30 23 -55 -4 -76 -13 -94 -43
l-18 -30 -39 33 c-91 77 -126 92 -138 61z m269 -370 c20 -34 32 -45 48 -43 46
4 107 -14 138 -42 17 -15 37 -25 45 -22 8 3 17 -2 20 -11 7 -18 34 -21 52 -6
9 7 9 7 2 -2 -6 -7 -5 -18 1 -30 8 -15 17 -18 37 -13 21 5 24 4 15 -6 -20 -20
3 -52 32 -45 19 5 26 -1 43 -37 39 -83 39 -83 -20 -114 -29 -15 -56 -29 -59
-31 -4 -2 -17 17 -29 42 -42 87 -124 129 -209 107 -64 -17 -96 -44 -127 -106
l-26 -55 -64 0 -63 0 -27 51 c-68 124 -227 135 -309 22 -16 -23 -33 -42 -38
-42 -4 -1 -32 13 -63 30 -51 29 -54 33 -39 48 8 10 15 25 15 33 0 9 7 18 15
22 8 3 15 12 15 20 0 9 6 13 14 10 8 -3 19 3 26 15 6 12 19 21 30 21 12 0 22
9 25 23 5 18 14 22 46 24 56 2 69 9 69 37 0 28 16 42 44 37 11 -1 28 7 38 21
13 15 21 19 25 11 7 -19 38 -15 58 7 14 15 21 17 31 9 7 -6 19 -9 26 -6 7 2
21 -2 30 -10 15 -13 18 -12 33 11 10 14 25 26 35 26 10 0 22 9 25 20 3 11 8
20 10 20 2 0 15 -21 30 -46z m-640 -396 c84 -48 94 -56 100 -88 14 -73 62
-138 118 -159 40 -15 113 -14 145 3 44 23 86 74 103 124 l16 47 61 3 c53 3 63
0 68 -15 58 -195 280 -219 360 -38 19 44 30 56 82 83 33 18 62 32 65 32 3 0 8
-33 12 -72 15 -174 -52 -356 -179 -482 -86 -86 -159 -130 -268 -163 -73 -21
-97 -24 -203 -20 -89 3 -136 10 -182 26 -253 90 -423 326 -423 589 0 76 16
182 27 182 3 0 47 -24 98 -52z"/>
<path d="M8966 1204 c-9 -24 18 -50 89 -85 82 -40 176 -48 260 -22 78 25 145
68 145 92 0 32 -28 32 -77 1 -95 -60 -201 -68 -299 -21 -34 16 -65 34 -68 40
-11 17 -43 13 -50 -5z"/>
<path d="M1630 2258 c-60 -16 -65 -27 -52 -105 6 -37 14 -187 18 -333 14 -620
20 -764 36 -801 20 -45 73 -106 109 -125 89 -45 229 25 281 142 24 56 13 80
-42 89 -23 4 -53 17 -68 30 -25 21 -26 29 -33 151 -10 176 -13 817 -4 881 l8
53 -36 15 c-41 17 -162 19 -217 3z"/>
<path d="M305 2224 c-11 -3 -40 -12 -63 -21 -42 -15 -44 -17 -38 -47 13 -63
25 -452 25 -838 1 -272 5 -405 12 -422 17 -37 58 -49 143 -44 83 5 134 29 154
70 l12 26 58 -23 c191 -78 434 -52 599 64 140 98 203 224 203 402 0 109 -13
176 -52 257 -81 172 -291 282 -516 270 -101 -6 -188 -37 -277 -99 -31 -21 -59
-39 -62 -39 -3 0 -4 95 -1 211 4 200 4 211 -15 220 -21 12 -151 21 -182 13z
m711 -599 c35 -22 57 -46 79 -85 26 -48 30 -65 30 -135 0 -92 -21 -149 -76
-204 -57 -58 -110 -76 -219 -76 -87 0 -101 3 -160 32 -36 18 -82 50 -103 71
l-39 40 -9 157 c-5 87 -8 159 -6 162 2 2 16 -14 30 -34 31 -45 62 -66 85 -58
9 3 31 27 47 53 17 26 53 62 80 80 48 33 53 34 131 30 69 -3 88 -7 130 -33z"/>
<path d="M10201 2188 c-26 -7 -57 -25 -77 -45 -30 -29 -34 -40 -34 -84 0 -39
5 -55 24 -74 31 -31 97 -40 172 -25 110 23 147 58 147 136 0 36 -5 51 -26 72
-23 23 -36 27 -94 28 -38 2 -88 -2 -112 -8z"/>
<path d="M5267 2180 c-62 -11 -101 -36 -91 -58 14 -33 23 -305 23 -774 l1
-477 24 -28 c22 -25 31 -28 103 -31 96 -5 160 11 174 41 7 15 7 81 0 197 l-9
175 41 37 c23 21 45 38 49 38 25 1 146 -126 290 -302 103 -127 145 -168 175
-168 64 0 178 92 217 174 24 50 21 75 -11 87 -120 45 -200 101 -358 251 l-108
104 76 54 c42 30 130 93 196 138 80 55 121 90 121 102 0 24 -78 92 -138 120
-26 13 -66 25 -89 28 -40 4 -42 3 -68 -38 -30 -48 -105 -123 -185 -184 -81
-63 -210 -149 -215 -144 -3 3 -10 119 -16 259 -8 198 -8 266 2 312 14 68 10
76 -53 88 -51 10 -86 9 -151 -1z"/>
<path d="M7210 2180 c-30 -4 -68 -13 -83 -21 -26 -12 -28 -17 -23 -48 3 -20
10 -310 16 -646 14 -719 -1 -650 143 -650 105 0 147 16 166 63 l12 29 62 -25
c97 -39 215 -56 308 -43 266 36 437 177 485 399 40 191 -19 395 -148 507 -88
76 -255 135 -385 135 -102 0 -208 -37 -306 -107 -27 -19 -50 -33 -52 -31 -8 8
-9 299 -1 350 8 53 7 57 -15 71 -31 19 -109 27 -179 17z m687 -588 c53 -28 98
-82 114 -141 49 -173 -48 -338 -218 -370 -110 -21 -256 25 -334 105 -33 34
-34 39 -40 132 -4 53 -7 128 -8 167 -1 68 -1 69 16 45 30 -45 67 -80 84 -80
10 0 26 12 36 26 41 59 86 104 126 124 54 28 161 24 224 -8z"/>
<path d="M4288 1910 c-108 -17 -241 -79 -324 -150 -135 -116 -202 -307 -177
-500 31 -233 229 -406 504 -441 241 -30 615 78 676 194 29 57 14 247 -23 278
-11 9 -27 -2 -81 -57 -113 -115 -224 -161 -409 -171 -131 -7 -194 8 -277 66
-101 71 -139 209 -92 339 24 65 92 132 171 169 47 21 69 25 151 24 148 -1 252
-38 331 -117 24 -24 47 -44 52 -44 28 0 88 121 105 213 7 35 4 41 -33 76 -47
45 -121 82 -212 105 -76 20 -280 29 -362 16z"/>
<path d="M10196 1845 c-65 -18 -80 -34 -66 -69 6 -17 10 -185 10 -459 1 -465
0 -456 54 -477 64 -24 210 -5 239 31 17 21 18 35 12 124 -18 288 -32 695 -24
740 13 81 11 91 -18 104 -42 19 -151 22 -207 6z"/>
<path d="M6657 1186 c-66 -24 -113 -62 -137 -111 -74 -152 125 -264 301 -169
166 91 114 294 -76 293 -27 0 -67 -6 -88 -13z"/>
</g>
</svg>
